<?xml version="1.0" standalone="no"?>
<svg xmlns:xlink="http://www.w3.org/1999/xlink" id="wave" style="transform:rotate(0deg); transition: 0.3s" viewBox="0 0 1440 130" version="1.1" xmlns="http://www.w3.org/2000/svg"><defs><linearGradient id="sw-gradient-0" x1="0" x2="0" y1="1" y2="0"><stop stop-color="rgba(255, 255, 255, 1)" offset="0%"/><stop stop-color="rgba(255, 255, 255, 1)" offset="100%"/></linearGradient></defs><path style="transform:translate(0, 0px); opacity:1" fill="url(#sw-gradient-0)" d="M0,39L60,45.5C120,52,240,65,360,73.7C480,82,600,87,720,75.8C840,65,960,39,1080,32.5C1200,26,1320,39,1440,39C1560,39,1680,26,1800,30.3C1920,35,2040,56,2160,56.3C2280,56,2400,35,2520,23.8C2640,13,2760,13,2880,19.5C3000,26,3120,39,3240,47.7C3360,56,3480,61,3600,65C3720,69,3840,74,3960,78C4080,82,4200,87,4320,86.7C4440,87,4560,82,4680,80.2C4800,78,4920,78,5040,80.2C5160,82,5280,87,5400,75.8C5520,65,5640,39,5760,39C5880,39,6000,65,6120,71.5C6240,78,6360,65,6480,54.2C6600,43,6720,35,6840,30.3C6960,26,7080,26,7200,32.5C7320,39,7440,52,7560,58.5C7680,65,7800,65,7920,71.5C8040,78,8160,91,8280,93.2C8400,95,8520,87,8580,82.3L8640,78L8640,130L8580,130C8520,130,8400,130,8280,130C8160,130,8040,130,7920,130C7800,130,7680,130,7560,130C7440,130,7320,130,7200,130C7080,130,6960,130,6840,130C6720,130,6600,130,6480,130C6360,130,6240,130,6120,130C6000,130,5880,130,5760,130C5640,130,5520,130,5400,130C5280,130,5160,130,5040,130C4920,130,4800,130,4680,130C4560,130,4440,130,4320,130C4200,130,4080,130,3960,130C3840,130,3720,130,3600,130C3480,130,3360,130,3240,130C3120,130,3000,130,2880,130C2760,130,2640,130,2520,130C2400,130,2280,130,2160,130C2040,130,1920,130,1800,130C1680,130,1560,130,1440,130C1320,130,1200,130,1080,130C960,130,840,130,720,130C600,130,480,130,360,130C240,130,120,130,60,130L0,130Z"/></svg>